<?xml version="1.0" standalone="no"?>
<!DOCTYPE svg PUBLIC "-//W3C//DTD SVG 20010904//EN"
 "http://www.w3.org/TR/2001/REC-SVG-20010904/DTD/svg10.dtd">
<svg version="1.0" xmlns="http://www.w3.org/2000/svg"
 width="1024.000000pt" height="189.000000pt" viewBox="0 0 1024.000000 189.000000"
 preserveAspectRatio="xMidYMid meet">
<metadata>
Created by potrace 1.15, written by Peter Selinger 2001-2017
</metadata>
<g transform="translate(0.000000,189.000000) scale(0.100000,-0.100000)"
fill="#000000" stroke="none">
<path d="M2160 1565 c-11 -13 -8 -14 21 -9 l34 6 -32 -21 c-18 -11 -33 -27
-33 -35 0 -19 23 -37 46 -35 37 4 54 -1 54 -16 0 -8 5 -15 10 -15 6 0 10 7 10
15 0 11 11 15 40 15 29 0 40 -4 40 -15 0 -8 5 -15 11 -15 8 0 10 13 5 38 -3
20 -6 52 -6 70 0 31 -2 32 -40 32 -37 0 -40 -2 -40 -29 0 -16 -9 -39 -20 -52
l-19 -24 -1 41 c0 22 -5 45 -12 52 -17 17 -53 15 -68 -3z"/>
<path d="M6500 878 l0 -48 -87 0 c-47 0 -84 -2 -81 -5 6 -7 3109 -8 3116 -1 3
3 -115 6 -261 6 -166 0 -267 4 -267 10 0 5 7 7 15 4 21 -8 45 14 45 41 0 28
-19 45 -48 42 -19 -1 -22 -7 -22 -49 0 -41 -3 -48 -20 -48 -24 0 -24 -3 -5 50
8 24 13 45 11 47 -2 2 -10 -12 -16 -33 l-13 -37 -14 24 c-10 17 -12 18 -8 4 4
-11 10 -28 12 -37 5 -17 -55 -18 -1171 -18 -752 0 -1176 3 -1176 10 0 5 7 7
15 4 21 -8 45 14 45 41 0 28 -19 45 -48 42 -19 -1 -22 -7 -22 -49z"/>
<path d="M4890 518 l0 -48 -97 0 c-53 0 -94 -2 -91 -5 7 -7 1929 -8 1936 -1 3
4 -31 6 -76 6 -45 0 -82 2 -82 4 0 2 7 23 15 46 8 24 13 45 11 47 -2 2 -10
-12 -16 -33 l-13 -37 -14 24 c-10 17 -12 18 -8 4 17 -49 17 -55 1 -55 -15 0
-22 17 -29 75 -3 23 -4 20 -6 -12 -1 -30 -5 -43 -15 -43 -10 0 -16 14 -19 43
l-4 42 -1 -42 c-1 -30 -6 -43 -16 -43 -10 0 -16 14 -19 43 l-4 42 -1 -47 -2
-47 48 -4 c39 -3 36 -4 -20 -5 -38 -1 -68 0 -68 2 0 2 7 23 15 46 8 24 13 45
11 47 -2 2 -10 -12 -16 -33 l-13 -37 -14 24 c-10 17 -12 18 -8 4 18 -51 18
-55 -3 -55 -23 0 -32 18 -32 66 0 30 -3 34 -25 34 -22 0 -25 -4 -24 -32 2 -31
2 -31 6 -5 7 42 33 35 33 -9 0 -34 -2 -36 -26 -31 -16 3 -28 0 -31 -9 -4 -10
-24 -14 -68 -14 -69 0 -75 5 -75 66 0 30 -3 34 -25 34 -22 0 -25 -4 -24 -32 2
-31 2 -31 6 -5 7 42 33 35 33 -9 0 -34 -2 -36 -26 -31 -16 3 -28 0 -31 -9 -6
-17 -163 -20 -163 -4 0 5 7 7 15 4 21 -8 45 14 45 41 0 28 -19 45 -48 42 -19
-1 -22 -7 -22 -49 l0 -48 -351 0 -350 0 7 23 c16 53 24 67 38 67 10 0 16 -14
19 -42 l4 -43 1 42 c2 30 7 43 20 46 9 3 -2 5 -25 6 -39 1 -42 -1 -54 -36
l-12 -36 -14 24 c-10 17 -12 18 -8 4 20 -58 25 -55 -74 -55 -52 0 -91 4 -91
10 0 5 7 7 15 4 21 -8 45 14 45 41 0 28 -19 45 -48 42 -19 -1 -22 -7 -22 -49z"/>
</g>
</svg>
